<?xml version="1.0" encoding="UTF-8" standalone="no"?>
<!-- Created with Inkscape (http://www.inkscape.org/) -->

<svg
   version="1.1"
   id="svg1"
   width="39.114056"
   height="39.313618"
   viewBox="0 0 39.114056 39.313619"
   xmlns="http://www.w3.org/2000/svg"
   xmlns:svg="http://www.w3.org/2000/svg">
  <defs
     id="defs1">
    <clipPath
       clipPathUnits="userSpaceOnUse"
       id="clipPath2">
      <path
         style="opacity:0.5;fill:#000000"
         id="path3"
         d="M 23.348695,36.918877 A 20.455053,21.153521 0 0 1 2.9226992,58.072376 20.455053,21.153521 0 0 1 -17.561329,36.978976 20.455053,21.153521 0 0 1 2.8064696,15.765548 20.455053,21.153521 0 0 1 23.348365,36.798679" />
    </clipPath>
  </defs>
  <g
     id="g1"
     transform="translate(-17.561415,-33.526331)"
     style="opacity:1">
    <path
       style="opacity:1;fill:#aa0044;stroke-width:0.950382"
       id="path4"
       d="M 56.67547,53.18314 A 19.557028,19.656809 0 0 1 37.146224,72.839929 19.557028,19.656809 0 0 1 17.561494,53.238987 19.557028,19.656809 0 0 1 37.035097,33.526509 19.557028,19.656809 0 0 1 56.675155,53.071446" />
    <path
       style="fill:#080808;stroke:none"
       d="m 24.959999,64.959999 -0.64,-0.32 v 0.96 l -0.96,-0.32 v 2.239999 l -1.279999,1.6 0.319999,1.92 c 0.834905,2.829405 -2.177556,3.07792 -4.159999,3.52 -1.869473,-5.620488 -1.006932,-11.362255 -2.061287,-17.068329 -0.622754,-3.370283 -2.75483,-7.296963 -2.150381,-10.77167 0.506054,-2.909072 2.63411,-5.153203 3.935769,-7.681221 1.736307,-3.372177 1.718961,-8.487685 -0.684101,-11.518779 -0.819788,1.478096 -0.428523,5.100303 -2.435556,5.715557 -0.809494,0.248144 -1.468485,-0.931592 -1.6,-1.555557 -0.575195,-2.728984 -0.469364,-5.55206 -1.111111,-8.32 -0.23616,-1.018593 -1.244105,-2.205849 -1.573333,-0.64 l -2.2400002,2.24 c -1.4512646,-0.48375 -2.512572,1.414288 -3.1999999,2.56 l -0.32,-0.32 c -0.2488809,2.259248 -1.8598932,4.415303 -1.3632361,6.72 1.1396701,5.288535 5.2629314,9.683281 4.243236,15.36 l 0.32,3.2 h 0.64 c -0.7713452,3.204228 -1.854541,7.333789 -0.96,10.56 h -0.64 l -0.262185,4.800468 0.262185,8.319531 c 1.9064941,0.156836 2.8411438,1.136045 3.5200002,2.88 l 5.76,4.48 2.24,0.64 0.32,0.96 c 1.382663,0.316406 1.321877,1.293965 1.28,2.56 l -1.407408,1.92 -1.03111,4.242969 L 16.32,97.279998 15.04,100.16 l -1.829629,2.88 -3.2903712,7.36 -0.64,-0.32 -0.5228125,4.8 -0.120639,3.2 -1.8176031,5.76 1.1810546,7.04 0.64,1.6 1.6000002,2.56 c 1.519973,0.77203 2.046445,2.20964 2.24,3.84 0.767058,2.06549 -1.127526,3.64384 -1.92,5.44 l -0.6400002,-0.64 -0.32,0.96 -0.96,-0.32 -0.32,0.96 -2.2399999,1.92 0.32,4.16 3.1999999,0.96 1.9200002,2.56 h 0.32 l 0.32,-0.64 1.6,0.96 2.56,-2.24 0.32,0.32 v -0.64 l 1.6,0.96 3.52,-2.56 -0.32,-0.96 c 2.339821,-0.68463 4.439616,-0.47984 6.079999,-2.56 l 0.64,0.64 h 0.32 l 1.92,-2.24 -0.757304,7.36 0.407773,3.70268 3.869531,1.73732 c 0.235379,0.62002 0.459407,1.30543 0.96,0.64 h 0.32 l 0.32,0.96 0.64,0.32 1.92,-0.32 0.64,0.32 1.6,-0.96 0.32,0.32 0.96,-0.96 v 0.64 h 0.32 l 2.88,-1.28 0.64,-0.32 0.96,-0.64 -0.96,-7.36 -0.96,-0.32 v -7.04 l 2.56,-1.6 0.64,-0.32 c 0.840117,-1.645 1.333589,-2.9518 0.96,-4.8 h 0.96 l -4.16,-6.72 c 2.114839,-0.2047 3.410913,-0.9441 4.8,-2.56 h 0.32 l 0.96,0.32 0.32,1.6 -1.28,-0.32 1.92,3.84 0.32,5.12 c -1.239688,0.20257 -0.956172,3.67092 -0.96,4.8 l 0.64,-0.32 -1.92,10.24 0.96,-0.32 c -0.72874,3.75288 0.175937,7.27561 2.56,10.24 l 0.64,-0.64 1.6,1.28 4.8,0.32 -0.32,0.96 c 1.840742,-3e-5 4.64456,0.49412 6.290239,-0.47358 3.361196,-1.97646 2.648178,-4.99152 1.87625,-8.15461 -0.402408,-1.6489 -0.793457,-3.32705 -2.086489,-4.49181 0.11854,-1.12726 -0.0345,-2.40974 -1.28,-2.56 0.09872,-1.69775 -0.628565,-3.13447 -0.743096,-4.8 -0.145161,-2.11094 0.447471,-4.29328 0.168428,-6.39391 -0.1744,-1.3129 -1.100157,-2.29919 -1.404053,-3.56128 -0.504712,-2.09608 0.754536,-3.94668 1.658721,-5.72481 l 0.96,0.32 c 0.208652,-1.91629 0.682841,-3.8218 0.578959,-5.75985 -0.144751,-2.70047 -1.026586,-5.8269 0.38104,-8.32015 l -0.319999,0.96 c 1.021591,0 1.173388,1.95855 1.493334,2.88 0.44521,1.2822 1.540469,2.2779 1.92,3.52 0.295459,0.96696 -0.466108,1.92534 -0.533335,2.88 -0.03903,0.55428 0.178702,1.10709 0.05334,1.65333 -0.52081,2.26925 -3.488286,3.83832 -3.52,6.02667 -0.01548,1.06799 1.237305,1.25567 1.866665,1.92 0.425508,0.44914 0.561006,1.31269 0.586666,1.92 0.102885,2.435 -0.831734,4.83932 -0.586666,7.36 0.410235,4.21955 2.680938,10.80232 6.4,13.12 1.2167,0.75823 2.512793,2.3352 4.16,2.08 1.807085,-0.27997 2.127271,-3.25455 1.973335,-4.64 -0.280054,-2.52048 -0.608047,-5.18474 -0.74667,-7.68 -0.152998,-2.75405 0.176778,-5.81087 -0.37333,-8.64 -0.612578,-3.15041 -1.502744,-6.40537 -1.813335,-9.6 -0.14289,-1.46973 0.255991,-3.20006 0,-4.48 1.457002,-1.14145 1.583657,-4.23311 1.824278,-5.98239 0.225996,-1.64295 0.772519,-3.218 0.686547,-4.89761 -0.213354,-4.16836 -2.307685,-8.92185 -3.773129,-12.800002 -1.010699,-2.674707 -2.343946,-6.455488 -5.777696,-6.4 l -3.52,-1.28 c -1.34954,-1.86083 -2.104365,-3.245811 -0.319999,-5.12 l 1.919999,2.56 0.96,-0.64 0.32,0.96 c 4.426236,-1.530478 3.575508,-6.79709 2.884327,-10.557138 -0.337271,-1.834766 -0.847144,-3.816055 -2.244327,-5.122862 0.121719,-0.979736 0.13792,-2.088925 -0.96,-2.24 l -3.199999,-10.559999 -1.28,-0.32 c 0.158237,-2.491084 2.357983,-6.820987 0.64,-8.96 l -0.32,-3.52 h 0.64 l -1.067725,-7.36 -1.764512,-6.073916 0.912237,-5.446084 3.199999,-3.84 0.32,-4.799999 c -0.697651,-2.301827 -0.477114,-6.835645 0.64,-8.96 V 11.52 C 67.505301,8.7536814 68.16034,5.7551757 67.39242,2.9562499 66.925194,1.253291 65.301151,1.1332519 63.999999,1.92 h -0.32 l -0.64,-0.64 -0.32,0.9599999 h -1.6 l 0.32,0.96 -0.96,-0.32 -1.6,0.96 -0.64,2.56 -0.64,1.9199999 -2.56,0.32 -0.64,2.5600002 -0.96,-0.32 0.32,1.6 c -1.463184,0.644267 -2.380259,2.029121 -2.88,3.52 L 48.272372,17.657324 44.159999,18.56 c -1.300117,-0.864278 -2.77208,-0.491084 -4.16,0 l -2.24,-1.6 0.32,-0.96 c -1.720556,-1.847149 -3.07666,-4.558301 -3.52,-7.0400002 l -1.28,-0.32 L 29.252846,3.4677929 26.559999,1.92 C 25.215031,-0.10794922 22.311328,1.1148047 21.715556,3.1999999 20.628586,7.0043944 21.330556,12.060058 21.44,16 c 0.04743,1.707304 0.488298,3.397685 0.444443,5.12 -0.03317,1.302822 -0.430442,2.88664 -0.01778,4.159999 0.266186,0.821377 0.965009,1.394024 1.200002,2.24 0.321543,1.157549 -0.0558,2.395938 0.524443,3.52 0.880474,1.705674 1.826018,2.750254 2.044446,4.77333 0.331716,3.072354 -0.554648,6.457012 -0.951113,9.502227 -0.272215,2.090849 -1.188819,4.007353 -0.995554,6.204443 0.07528,0.85583 0.529304,1.449092 0.79111,2.24 0.721675,2.180156 1.722937,5.397881 1.76,7.68 0.02424,1.492187 -1.034829,2.154052 -1.28,3.52 m -0.32,-63.99999902 -0.32,0.32000002 0.32,-0.32000002 m 4.48,2.87999992 -0.32,0.32 0.32,-0.32 m 30.4,11.5200001 v 0.96 h 0.32 l 0.32,-0.64 0.96,1.28 v 0.32 l -2.56,-0.64 V 16.32 16 l 0.96,-0.64 m 0.64,1.28 0.32,0.32 -0.32,-0.32 m -0.64,3.52 c -0.208951,1.570537 -0.767046,2.280624 -2.24,2.879999 l 2.24,-2.879999 m 0.853335,2.13333 -0.10667,0.213339 0.10667,-0.213339 M 11.52,22.399999 l -0.32,0.32 0.32,-0.32 m 24.639999,7.04 0.96,0.64 v 0.32 l -0.96,0.32 v -1.28 m 16,2.24 0.64,-0.96 -1.28,-0.96 c 1.27187,0.09609 2.31727,1.652344 0.64,1.92 m -7.04,2.56 1.6,5.76 -0.64,-0.64 h -0.32 l -1.28,0.32 0.96,2.24 c 0.879717,-1.298115 1.62374,2.027158 1.031113,2.862227 -0.800913,1.128554 -2.580791,-0.272256 -3.591113,0.657773 h -0.32 l -0.96,-0.96 0.32,-6.4 h 0.96 l -0.32,-2.88 0.64,-0.64 h 0.32 l 0.32,0.64 0.64,-0.96 h 0.64 m -2.56,6.72 0.96,-0.64 -0.96,0.64 m -1.28,-0.32 -0.32,0.32 0.32,-0.32 m -0.64,0.64 -0.32,0.32 0.32,-0.32 m 8.96,6.4 0.32,2.56 h 0.96 l 0.96,-1.28 -0.96,2.24 -1.28,1.6 0.96,1.28 -1.28,-0.32 -0.32,0.32 c 0.716284,3.265947 -0.07942,5.876103 -2.56,8 l -4.8,-0.64 h -0.64 l -1.6,-3.84 -0.64,-1.6 1.28,-2.88 -0.96,-0.32 0.32,-0.96 c -1.737412,-0.241406 -0.372087,-2.593135 1.28,-2.24 l 0.64,1.92 -0.32,1.28 2.56,0.64 3.52,-1.6 c -0.478125,-2.056865 0.75981,-3.333789 2.56,-4.16 m -2.56,2.88 -0.32,0.64 0.32,-0.64 m -1.066665,0.53333 -0.10667,0.21334 0.10667,-0.21334 m 2.986665,0.42667 0.32,0.32 -0.32,-0.32 m -2.56,0.64 v 0.96 h 0.32 l -0.32,-0.96 m -8.106667,1.81333 -0.106665,0.21334 0.106665,-0.21334 m 11.200002,14.72 -0.10667,0.213339 0.10667,-0.213339 m 0.106665,1.066669 -0.32,2.88 -0.64,0.64 h -0.32 l -0.64,-1.28 h 0.96 l 0.96,-2.24 m -0.533335,0.85333 0.10667,0.21334 -0.10667,-0.21334 m 5.013335,0.10667 v 0.32 h -0.96 l 0.96,-0.32 m -0.96,0.96 h -0.96 l 0.32,-0.64 0.64,0.64 m -2.88,0.32 -0.64,0.64 v -0.64 h 0.64 m 21.439999,3.52 -0.32,0.32 0.32,-0.32 m -18.559999,11.84 h 0.32 l 0.32,1.28 c -0.847647,-0.181641 -1.073535,-0.508086 -0.64,-1.28 m -16,2.24 -0.96,-0.96 0.96,0.96 m -18.559999,1.92 -0.32,0.32 0.32,-0.32 m 19.839999,3.52 h 0.32 l 0.32,-0.64 4.16,2.88 h 1.92 l 0.32,0.96 h 0.32 c 0.329819,-1.439258 0.773315,-3.324219 2.56,-2.56 l 0.64,-0.32 v -1.6 h 1.92 l -0.32,1.28 1.6,1.28 1.92,0.96 h 0.32 l 0.96,-0.32 1.6,-3.2 h 1.28 l 0.32,3.2 h -0.64 l 0.32,4.480002 -0.96,-0.32 0.32,0.96 -1.28,0.32 -2.458574,4.44767 -1.701426,6.43233 0.64,-2.88 -0.32,-0.64 -0.32,-0.32 h -1.28 l -0.96,0.64 -1.6,-1.6 v 1.28 h -0.32 l -0.32,-1.6 h -0.32 l -0.32,0.64 c -0.855435,-1.51139 -1.801284,-2.9741 -3.52,-3.52 l -1.92,-1.92 V 104 h -0.32 c -0.304853,-1.52623 -1.16644,-2.52463 -2.56,-3.2 l -3.52,-3.520002 c -0.342778,-0.882871 -0.715615,-1.862539 -0.179177,-2.766094 0.896504,-1.510019 2.839822,-0.784355 3.379177,0.526094 m 35.733334,0.21334 -0.10667,0.21332 0.10667,-0.21332 m 1.066665,1.38666 -0.32,0.32 0.32,-0.32 m 1.28,3.2 -0.32,0.320002 0.32,-0.320002 M 49.599999,108.8 l 0.32,0.32 -0.32,-0.32 m -0.32,19.52 -0.64,0.96 0.64,-0.96 m 0.96,0.96 0.32,0.32 -0.32,-0.32 m -22.08,2.56 0.32,0.64 -0.32,-0.64 m 0.32,2.56 h -0.32 l -0.96,-0.32 c 0.66741,-0.66742 1.07179,-0.64669 1.28,0.32 m 20.16,-0.32 -0.32,0.32 0.32,-0.32 m -19.84,0.96 v 6.08 h -0.32 l 0.32,-6.08 m 35.52,25.92 -0.32,0.32 0.32,-0.32 m 0.96,0.64 v 0.32 h -0.96 l 0.96,-0.32 m 0.32,0.96 0.32,0.64 h -0.64 z"
       id="path1"
       clip-path="url(#clipPath2)"
       transform="translate(25.942996,18.958343)" />
  </g>
</svg>
